<svg xmlns="http://www.w3.org/2000/svg"
   xmlns:xlink="http://www.w3.org/1999/xlink"
   version="1.1"
   id="por_for_cheetah_v4" width="100%" height="100%"  viewBox="-6 -6 1794 1019">
<desc>
XCircuit Version 3.10
File "por_for_cheetah_v4.ps" Page 1
</desc>
<g stroke="black">
<path d="M687,397 L431,557 431,237 687,397 " fill="none" stroke-width="2" stroke-linejoin="bevel" stroke-linecap="round" stroke="#000000" />
<path d="M431,301 L63,301 " fill="none" stroke-width="2" stroke-linejoin="bevel" stroke-linecap="round" stroke="#000000" />
<path d="M975,397 L1039,397 " fill="none" stroke-width="2" stroke-linejoin="bevel" stroke-linecap="round" stroke="#000000" />
<path d="M431,493 L367,493 " fill="none" stroke-width="2" stroke-linejoin="bevel" stroke-linecap="round" stroke="#000000" />
<g transform="matrix(   1    0   -0    1 463 301)" fill="#000000" >
<text stroke="none" font-family="Helvetica" font-size="40" ><tspan x="-12" y="10">+</tspan>
</text></g>
<g transform="matrix(   1    0   -0    1 463 493)" fill="#000000" >
<text stroke="none" font-family="Helvetica" font-size="40" ><tspan x="-11" y="6">&#8211;</tspan>
</text></g>
<path d="M1039,301 L1039,493 1199,493 1199,301 z" fill="none" stroke-width="2" stroke-linejoin="bevel" stroke-linecap="round" stroke="#000000" />
<path d="M1263,301 L1263,493 1423,493 1423,301 z" fill="none" stroke-width="2" stroke-linejoin="bevel" stroke-linecap="round" stroke="#000000" />
<path d="M1199,397 L1263,397 " fill="none" stroke-width="2" stroke-linejoin="bevel" stroke-linecap="round" stroke="#000000" />
<path d="M1423,397 L1471,397 " fill="none" stroke-width="2" stroke-linejoin="bevel" stroke-linecap="round" stroke="#000000" />
<path d="M751,397 L751,653 559,653 559,477 " fill="none" stroke-width="2" stroke-linejoin="bevel" stroke-linecap="round" stroke="#000000" />
<path d="M567,505 C562,495 562,492 559,477 C556,492 556,495 551,505 C557,503 561,503 567,505 " fill="#000000" stroke="none" />
<g transform="matrix(   1    0   -0    1 1343 365)" fill="#000000" >
<text stroke="none" font-family="Helvetica" font-size="40" ><tspan x="-48" y="15">delay</tspan>
</text></g>
<g transform="matrix(   1    0   -0    1 1343 445)" fill="#000000" >
<text stroke="none" font-family="Helvetica" font-size="40" ><tspan x="-52" y="14">50<tspan dx="7"></tspan></tspan><text stroke="none" font-family="Helvetica" font-size="40" ><tspan x="-1" y="14">ms</tspan></text>
</text></g>
<g transform="matrix(   1    0   -0    1 575 525)" fill="#000000" >
<text stroke="none" font-family="Helvetica" font-size="40" ><tspan x="0" y="0">hyst</tspan>
</text></g>
<g transform="matrix(   1    0   -0    1 319 493)" fill="#000000" >
<text stroke="none" font-family="Helvetica" font-size="40" ><tspan x="-170" y="15">reference</tspan>
</text></g>
<path d="M63,141 L63,169 " fill="none" stroke-width="2" stroke-linejoin="bevel" stroke-linecap="round" stroke="#000000" />
<path d="M63,269 L63,241 " fill="none" stroke-width="2" stroke-linejoin="bevel" stroke-linecap="round" stroke="#000000" />
<path d="M63,241 L77,235 49,223 77,211 49,199 77,187 49,175 63,169 " fill="none" stroke-width="2" stroke-linejoin="bevel" stroke-linecap="round" stroke="#000000" />
<path d="M63,333 L63,361 " fill="none" stroke-width="2" stroke-linejoin="bevel" stroke-linecap="round" stroke="#000000" />
<path d="M63,461 L63,433 " fill="none" stroke-width="2" stroke-linejoin="bevel" stroke-linecap="round" stroke="#000000" />
<path d="M63,433 L77,427 49,415 77,403 49,391 77,379 49,367 63,361 " fill="none" stroke-width="2" stroke-linejoin="bevel" stroke-linecap="round" stroke="#000000" />
<path d="M63,269 L63,333 " fill="none" stroke-width="2" stroke-linejoin="bevel" stroke-linecap="round" stroke="#000000" />
<ellipse cx="63" cy="301" rx="6" ry="6" fill="#000000" stroke="none" />
<path d="M63,141 L63,77 " fill="none" stroke-width="2" stroke-linejoin="bevel" stroke-linecap="round" stroke="#000000" />
<path d="M63,461 L63,621 " fill="none" stroke-width="2" stroke-linejoin="bevel" stroke-linecap="round" stroke="#000000" />
<path d="M63,621 L63,653 " fill="none" stroke-width="2" stroke-linejoin="bevel" stroke-linecap="round" stroke="#000000" />
<path d="M31,653 L95,653 " fill="none" stroke-width="2" stroke-linejoin="bevel" stroke-linecap="round" stroke="#000000" />
<path d="M45,667 L81,667 " fill="none" stroke-width="2" stroke-linejoin="bevel" stroke-linecap="round" stroke="#000000" />
<path d="M59,681 L67,681 " fill="none" stroke-width="2" stroke-linejoin="bevel" stroke-linecap="round" stroke="#000000" />
<ellipse cx="63" cy="61" rx="6" ry="6" fill="none" stroke-width="2" stroke-linejoin="bevel" stroke-linecap="round" stroke="#000000" />
<path d="M63,77 L63,67 " fill="none" stroke-width="2" stroke-linejoin="bevel" stroke-linecap="round" stroke="#000000" />
<g transform="matrix(   1    0   -0    1  63  29)" fill="#000000" >
<text stroke="none" font-family="Helvetica" font-size="40" ><tspan x="-64" y="0">VDDIO</tspan>
</text></g>
<path d="M1487,437 L1487,357 1559,397 z" fill="none" stroke-width="2" stroke-linejoin="bevel" stroke-linecap="round" stroke="#000000" />
<path d="M1487,397 L1471,397 " fill="none" stroke-width="2" stroke-linejoin="bevel" stroke-linecap="round" stroke="#000000" />
<path d="M1559,397 L1583,397 " fill="none" stroke-width="2" stroke-linejoin="bevel" stroke-linecap="round" stroke="#000000" />
<path d="M1583,397 L1615,397 " fill="none" stroke-width="2" stroke-linejoin="bevel" stroke-linecap="round" stroke="#000000" />
<ellipse cx="1631" cy="397" rx="6" ry="6" fill="none" stroke-width="2" stroke-linejoin="bevel" stroke-linecap="round" stroke="#000000" />
<path d="M1615,397 L1625,397 " fill="none" stroke-width="2" stroke-linejoin="bevel" stroke-linecap="round" stroke="#000000" />
<path d="M1487,565 L1487,485 1559,525 z" fill="none" stroke-width="2" stroke-linejoin="bevel" stroke-linecap="round" stroke="#000000" />
<ellipse cx="1567" cy="525" rx="8" ry="8" fill="none" stroke-width="2" stroke-linejoin="bevel" stroke-linecap="round" stroke="#000000" />
<path d="M1487,525 L1471,525 " fill="none" stroke-width="2" stroke-linejoin="bevel" stroke-linecap="round" stroke="#000000" />
<path d="M1575,525 L1583,525 " fill="none" stroke-width="2" stroke-linejoin="bevel" stroke-linecap="round" stroke="#000000" />
<path d="M1455,397 L1455,525 1471,525 " fill="none" stroke-width="2" stroke-linejoin="bevel" stroke-linecap="round" stroke="#000000" />
<ellipse cx="1455" cy="397" rx="6" ry="6" fill="#000000" stroke="none" />
<path d="M1583,525 L1615,525 " fill="none" stroke-width="2" stroke-linejoin="bevel" stroke-linecap="round" stroke="#000000" />
<ellipse cx="1631" cy="525" rx="6" ry="6" fill="none" stroke-width="2" stroke-linejoin="bevel" stroke-linecap="round" stroke="#000000" />
<path d="M1615,525 L1625,525 " fill="none" stroke-width="2" stroke-linejoin="bevel" stroke-linecap="round" stroke="#000000" />
<g transform="matrix(   1    0   -0    1 1663 397)" fill="#000000" >
<text stroke="none" font-family="Helvetica" font-size="40" ><tspan x="0" y="11">por</tspan>
</text></g>
<g transform="matrix(   1    0   -0    1 1663 525)" fill="#000000" >
<text stroke="none" font-family="Helvetica" font-size="40" ><tspan x="0" y="15">porb</tspan>
</text></g>
<ellipse cx="751" cy="397" rx="6" ry="6" fill="#000000" stroke="none" />
<ellipse cx="351" cy="493" rx="6" ry="6" fill="none" stroke-width="2" stroke-linejoin="bevel" stroke-linecap="round" stroke="#000000" />
<path d="M367,493 L357,493 " fill="none" stroke-width="2" stroke-linejoin="bevel" stroke-linecap="round" stroke="#000000" />
<g transform="matrix(   1    0   -0    1 703 765)" fill="#0000ff" >
<text stroke="none" font-family="Helvetica" font-size="40" ><tspan x="-127" y="29">Block diagram</tspan>
</text></g>
<g transform="matrix(   1    0   -0    1 1007 189)" fill="#000000" >
<text stroke="none" font-family="Helvetica" font-size="40" ><tspan x="-63" y="0">Vcomp</tspan>
</text></g>
<g transform="matrix(   1    0   -0    1 1119 397)" fill="#000000" >
<text stroke="none" font-family="Helvetica" font-size="40" ><tspan x="-47" y="-5">glitch</tspan><tspan x="-47" y="35">filter</tspan>
</text></g>
<path d="M815,301 L815,493 975,493 975,301 z" fill="none" stroke-width="2" stroke-linejoin="bevel" stroke-linecap="round" stroke="#000000" />
<path d="M1007,397 L1007,237 " fill="none" stroke-width="2" stroke-linejoin="bevel" stroke-linecap="round" stroke="#000000" />
<ellipse cx="1007" cy="221" rx="6" ry="6" fill="none" stroke-width="2" stroke-linejoin="bevel" stroke-linecap="round" stroke="#000000" />
<path d="M1007,237 L1007,227 " fill="none" stroke-width="2" stroke-linejoin="bevel" stroke-linecap="round" stroke="#000000" />
<ellipse cx="1007" cy="397" rx="6" ry="6" fill="#000000" stroke="none" />
<path d="M815,397 L687,397 " fill="none" stroke-width="2" stroke-linejoin="bevel" stroke-linecap="round" stroke="#000000" />
<path d="M847,333 L895,333 895,365 943,365 " fill="none" stroke-width="2" stroke-linejoin="bevel" stroke-linecap="round" stroke="#000000" />
<g transform="matrix(   1    0   -0    1 895 429)" fill="#000000" >
<text stroke="none" font-family="Helvetica" font-size="40" ><tspan x="-55" y="-5">level</tspan><tspan x="-55" y="35">shifter</tspan>
</text></g>
<path d="M943,77 L975,45 1679,45 1711,77 " fill="none" stroke-width="2" stroke-linejoin="bevel" stroke-linecap="round" stroke="#000000" />
<g transform="matrix(   1    0   -0    1 1327  29)" fill="#000000" >
<text stroke="none" font-family="Helvetica" font-size="40" ><tspan x="-128" y="0">VCCD domain</tspan>
</text></g>
<g transform="matrix(   1    0   -0    1 1375 765)" fill="#000000" >
<text stroke="none" font-family="Helvetica" font-size="40" ><tspan x="-55" y="-5">level</tspan><tspan x="-55" y="35">shifter</tspan>
</text></g>
<path d="M1327,701 L1375,701 1375,669 1423,669 " fill="none" stroke-width="2" stroke-linejoin="bevel" stroke-linecap="round" stroke="#000000" />
<path d="M1295,637 L1295,829 1455,829 1455,637 z" fill="none" stroke-width="2" stroke-linejoin="bevel" stroke-linecap="round" stroke="#000000" />
<path d="M1455,525 L1215,525 1215,733 1295,733 " fill="none" stroke-width="2" stroke-linejoin="bevel" stroke-linecap="round" stroke="#000000" />
<path d="M1487,773 L1487,693 1559,733 z" fill="none" stroke-width="2" stroke-linejoin="bevel" stroke-linecap="round" stroke="#000000" />
<ellipse cx="1567" cy="733" rx="8" ry="8" fill="none" stroke-width="2" stroke-linejoin="bevel" stroke-linecap="round" stroke="#000000" />
<path d="M1487,733 L1471,733 " fill="none" stroke-width="2" stroke-linejoin="bevel" stroke-linecap="round" stroke="#000000" />
<path d="M1575,733 L1583,733 " fill="none" stroke-width="2" stroke-linejoin="bevel" stroke-linecap="round" stroke="#000000" />
<ellipse cx="1455" cy="525" rx="6" ry="6" fill="#000000" stroke="none" />
<path d="M1471,733 L1455,733 " fill="none" stroke-width="2" stroke-linejoin="bevel" stroke-linecap="round" stroke="#000000" />
<g transform="matrix(   1    0   -0    1 1663 733)" fill="#000000" >
<text stroke="none" font-family="Helvetica" font-size="40" ><tspan x="0" y="15">porb_h</tspan>
</text></g>
<ellipse cx="1631" cy="733" rx="6" ry="6" fill="none" stroke-width="2" stroke-linejoin="bevel" stroke-linecap="round" stroke="#000000" />
<path d="M1615,733 L1625,733 " fill="none" stroke-width="2" stroke-linejoin="bevel" stroke-linecap="round" stroke="#000000" />
<path d="M1583,733 L1615,733 " fill="none" stroke-width="2" stroke-linejoin="bevel" stroke-linecap="round" stroke="#000000" />
<g transform="matrix(   1    0   -0    1  63 941)" fill="#000000" >
<text stroke="none" font-family="Helvetica" font-size="40" ><tspan x="0" y="0">Proposed POR for Cheetah V4</tspan>
</text></g>
<g transform="matrix(   1    0   -0    1  63 1005)" fill="#000000" >
<text stroke="none" font-family="Helvetica" font-size="40" ><tspan x="0" y="0">VDDIO power supply is referenced to the bandgap ("reference").</tspan>
</text></g>
</g>
</svg>
